<mxfile host="app.diagrams.net" modified="2021-11-30T04:29:34.724Z" agent="5.0 (X11; Linux x86_64) AppleWebKit/537.36 (KHTML, like Gecko) Chrome/100.0.4710.4 Safari/537.36" etag="HGt6TGGBwbJKgN3dDUjY" version="15.8.7" type="github">
  <diagram id="6lpIZf49RWjNjYteVWTj" name="Page-1">
    <mxGraphModel dx="2272" dy="801" grid="1" gridSize="10" guides="1" tooltips="1" connect="1" arrows="1" fold="1" page="1" pageScale="1" pageWidth="850" pageHeight="1100" math="0" shadow="0">
      <root>
        <mxCell id="0" />
        <mxCell id="1" parent="0" />
        <mxCell id="3Hz_xQ96xvLKW2dNAy2B-4" value="" style="sketch=0;outlineConnect=0;fontColor=#232F3E;gradientColor=none;fillColor=#2E27AD;strokeColor=none;dashed=0;verticalLabelPosition=bottom;verticalAlign=top;align=center;html=1;fontSize=12;fontStyle=0;aspect=fixed;pointerEvents=1;shape=mxgraph.aws4.rds_mariadb_instance;" parent="1" vertex="1">
          <mxGeometry x="388.81" y="24" width="56" height="56" as="geometry" />
        </mxCell>
        <mxCell id="3Hz_xQ96xvLKW2dNAy2B-5" value="" style="shape=image;verticalLabelPosition=bottom;labelBackgroundColor=#ffffff;verticalAlign=top;aspect=fixed;imageAspect=0;image=https://user-images.githubusercontent.com/20464494/85605594-4f11d980-b620-11ea-9424-a8d2c8064f53.png;imageBorder=none;" parent="1" vertex="1">
          <mxGeometry x="309.96" y="480" width="213.7" height="60" as="geometry" />
        </mxCell>
        <mxCell id="3Hz_xQ96xvLKW2dNAy2B-6" value="" style="shape=image;verticalLabelPosition=bottom;labelBackgroundColor=#ffffff;verticalAlign=top;aspect=fixed;imageAspect=0;image=data:image/png,iVBORw0KGgoAAAANSUhEUgAAATcAAACiCAMAAAATIHpEAAABI1BMVEX///8iHiAAAADxvxo+v7EGpd8Am4/XoygbFhgQCQ2NjI3wuwBTUVLl5uYNBAnNzM2ZmZn4+PgIAADc3NwAlYjGxsbVnghMSkuoqakAn90WEBPp8vebzOZfXV767Mzz5s65uLh9fX6srKzq6upwb3CFhYUCquYiuqugoKHX19e2trZdXF1EQ0QmIyVxcHEzMTMtKy3++vEiGBbW7eqc19A+PD388t766cD11ojyx03zy17325f44KXxwzv58eXmulTpzZjdqiXaq0P00HPt167quB7dsVbhu3IASmo4rd8hKi+z2u8jAAB9xOgjCwAPj8ATfabW6vYXbZEaYX0cUGdbueOl0+wLmMwENEWarbix1dFox7yD0MZptq6Rx8FBqJ7B5OBI33o+AAAKRklEQVR4nO2daWPbxhFAiZGPBSSAACiYNBzKAEhUIEiKUm3arhsnaZMeadr0TltbTfT/f0V3cC5OURJl0OW8LzJBYHf2cY/ZlcL0egRBEARBEARBEARBEARBEARBEMT+cvHq5OT165OTV10H8ulw8frNLw4F3v7ypOuQdp+Lz99xVQcikbvXXQe205y8LTkT3L35ouvodpWTdw3WEnVvyVwNX3zZIi0x96brIHePr548/tU13tAczXMFLn795DHnWnEHh193Heou8Tyytpm4dxddR7szfJNq20TcwSHlwjFf5do2E/e864h3goK2DRYH6nER3xS0bSiOMrnnJW2PH/9mA3EH+744XFS0bTbFfd514B3z26q2TfLffd84lCe3zUbq3ve2ulF67Ug9PNj75fR39dpaOtzh4cG+d7Ze79WTJg4bOPiazn65t+dNnNTyat+zD4IgiP9rJmoLz8p0He3uAG38/mmZb3/oOuDdQAWphT/87GGZp0+/6zrmXSBs9fbHijY096eug94BfLnN2/d/rhX3WddRd8+ctXr7S3Wgori/dh1257RZ497+Vuvt4bddh905rdOb9PO/13vb+w5nXOPtHw3e9j0bmdzO28N9X1Lb07dmb//sOvCOuW1/23dvt5zfHu59Bkfr6e3Q2r015G9Puw67cxa32i/sexrS67l2q7fa/SltF3q9wGz19q9ab0bXUXfPrHVh+L5mmD7d9xwkBrRmzH+XvOGBLx1bRoz0Fv7zWZEfvqPfMBAEQRBELe+Pm3j0oJYPL6+6jnkneNREvTbO6enli66j7p4Xxzf1huouuw67e/5bL65NG5qjLncrbw9Or7qOu2tqR+p12khcr/djVdzpBt5opFanOOpuG/HT8Y21vew65p2gKO76UUraEkRxpO0GCHMczW034f3xxpMbraQizx4db5Twfug60J3jx+Pjn66z9uCq6yh3EOOyfU04pQWhgWeXp43qyFobxvsHdepOTz9cdR3arvPs6pJ7Os2M8X9eXtHfN2zEsxdXLy8jXl69IGcEQRAEQRAEQRAEQewKVhj2u45hK0y80PuI1S0A/LuXovu+c/dS7kQfAD7iYdURk5W7l7IwYQul3Ik+SJ+At/7Ic4SXQ6bpWwrotnwa3hSAI+HlGqi/bYQis7Hwsm9Zg21FdEs+SW87AHm7HeTtdnwa3vS98jbzhzbYC1/YIQjeBo7uzlcMYDkPxAgMb7oCYKsjVw9n+IYXjMaMLUYBEuUfXhAIZTrumleznireLLmi6nMJQFqP3cARFpB+NR6j7ynT4VIDee3ml1U9rqc3U86Tq8ZoupJBGp7poRqVxb3xGwOMdTkOtqhwMgSZITKs1PRi7u0IQLNZ9L0WtglW9pgOYONVxmwNAKMegsYvsPi/BQe8ZyHkIWF6vy1D3CeNafQAFiHzIrJ4FjweqRjPDMCU7fhmGebprRZo+Fi4AhlibwqYWS164k3z1tiEuAFb2z2qYEv8Y1zZoEkM0p6Qe5vm34MqSxKk3WIMkmSmb2jR5SHvfTzi5BreJOS9OuRvwVmkTZLzK6YMWTxMiGeQXszqwrfTucDCzuRI/BKLhWBUdnqjl3iTNO46eVSCrGvcEd6VIJhgOwJUUfEWBk5fnWD/nvggsSStDfk/l55qGMZk0A/1MUbjhOGUj1P+g+MVveEXPMDciR6YWVEbzzRJG1qT+IqnpC5sjMdI4mFafNFQPGsWBdGzzvkNs8wbG+NdsPaxCSOsxe1jmeosHvnoDZaKhTX3h7JkT7ejTTfzj2AAkqmXvYn4cjrJLhg7ryutuC7k3ua2BGHhVgNq26DUx1N8UE7OHCzsxAzOo8+9F329EJQSbZzf8rF5xCTobQVebH7Owr2wtII6b2oWBG9R3fGM0uANJZ0Vb+U9sG7MgOgXv5a1esuZnfZ69AZHmZZ+TVTF9RRfzXpbIJohMgZZWxryEP6+gz+NwqeY0+TNqsZbrPm6eEQCTVrmdwthKHK1yFIe0vB53xhFLgyW1Mt13m7a33St0qJ+rZOmeERGZtoLS+7njB2Vby55W23phGZsF8rhxQbRP67ztuQTS80oa/LGh9aidOsEF5lKOjUvtutcSuIR8Zq8LbOJL6fkbcxktxr2zVkxU5yuM11lb3x9sjzdtVNvfPqWYBjMSg1v8jZn1TVgjdnD1CvO4+essHyUDvBw7Q4UPrnXe4MayyVvZ/Z2FlQ+X7veKMVb13kbKIs4x9IwgXOia4ZkYooLcD4dCf2uyduQ2ZWPecATR8xEYe2GWcua4uGZz3QZ54oyZrDxtYq36uRR8uZuzRsPPYfnlHFDc2/GHGQb83mOJOXzjQKY1vPE3IRVeq3R26JueEymSRE8K53P2uNx+G7D1uLkd9nsrZTr9Oq8bWUDzeOUi/9zhPL8tpIlbemPnP7AKM3TlnKEnz8OtzSWZm/V/sYxHH8R70NYUm81nlFUFSYcYz1Ofhvnt4/qTdbVgUicQmbePF6vItxeWt8mfX2NbUribfJ2xMrpW47q+Axny0lLPPj1+tl00Lie8nE6Kpd+T97OmVapChEWCHElrM0LeGgs2Wo3eRvbbF55TkBPp/RlbX6Djc9PFBq9mVI1ybgnb/OGc7bMW3GNqvWG+Wayj+T7LDGDyrzxxH/ZGsc66ZD1+Q8fmYKfRm/rml59T958uZoqIoI3MVGp9+Zk4etaIU/LvPGmtp8e8jjm4s8iPG2W81eN3qY2W5UfvSdvTsNxqNjfhIF8nTe+BRI3lJm3Wf2DOWl7wtp4Am2j/oa3TUqP3pM34XChQOaNFTbk9c137fRwxCk2JE9b+RS4bovjPAkD46kO1LCwJ2tcTweY/ZUevSdvvG9LUN3K5N7w/fQzNEI+XpIDDuFeL3c/KIrNvfEJTh4XO5L4ytXSiR/rq6xUqihkNs4Og8pnA3wLAqWV4b684VfXw0p3LMtywpHup6fjqTc892PhYDBzlCHgt/LCCDW6sBr7uhc6nnIOUq4WT8AUy/ICH4PNvRnRQew0CB1exzQqWoLFVOEXnJHLNyJpjy3F48ZRLLiQs/5gZo3ObNxmsOGszlt0uCu7I4fvxtxxeJ/eeN0s2jBFexgt/TMF8Zw8ORDnuwawuZfoSJ9v1PkmwsQDbj6S8yQhiBNXU4vGlbC97Ee7Ki3arZlR6DL+EgArNm1s7aQtHjw8j86/TZv/MDHV1mu88XyGxXs3TbbjYXRv3nqDIVYjy1oUbDILCX/H5XI3MjaQ+QPcXUXe3HirGL8xFnaoeLdty2Z03Cb+fYg6TqrhD0Zr7jIrgrfTz9tWG89Mwmv4Qc3D3mAFZjSYLYDS8VR/ndcSVW0V/47rDKA1kbwRk1D3fUUPwmgvFV9S1WxlmniKrwRW/Npw9HimmeDRhI9vFKctdeSfuYrXN+JShDf5o1iN1081q/1QxyJGpSNQtRoPF8Cv6elvEGej6JeEhqpWDrPih/mzSbzFW8R2EQRBEARBEARBEARBEARBEARBEASxV/wP4agWwZVPuQoAAAAASUVORK5CYII=;" parent="1" vertex="1">
          <mxGeometry x="960" y="21.79" width="115.99" height="60.42" as="geometry" />
        </mxCell>
        <mxCell id="3Hz_xQ96xvLKW2dNAy2B-7" value="" style="shape=image;verticalLabelPosition=bottom;labelBackgroundColor=#ffffff;verticalAlign=top;aspect=fixed;imageAspect=0;image=https://www.bujarra.com/wp-content/uploads/2018/11/kibana0.jpg;" parent="1" vertex="1">
          <mxGeometry x="954.96" y="200" width="126.06" height="80" as="geometry" />
        </mxCell>
        <mxCell id="3Hz_xQ96xvLKW2dNAy2B-9" value="" style="shape=image;verticalLabelPosition=bottom;labelBackgroundColor=#ffffff;verticalAlign=top;aspect=fixed;imageAspect=0;image=https://www.bujarra.com/wp-content/uploads/2018/11/logstash.jpg;" parent="1" vertex="1">
          <mxGeometry x="640" y="17" width="110.31" height="70" as="geometry" />
        </mxCell>
        <mxCell id="3Hz_xQ96xvLKW2dNAy2B-13" value="" style="shape=image;verticalLabelPosition=bottom;labelBackgroundColor=#ffffff;verticalAlign=top;aspect=fixed;imageAspect=0;image=https://2s7gjr373w3x22jf92z99mgm5w-wpengine.netdna-ssl.com/wp-content/uploads/2015/01/neo4j-logo.png;" parent="1" vertex="1">
          <mxGeometry y="24" width="127.22" height="60" as="geometry" />
        </mxCell>
        <mxCell id="eB1y9XzGJmH_I-JKS54s-4" value="" style="shape=image;verticalLabelPosition=bottom;labelBackgroundColor=#ffffff;verticalAlign=top;aspect=fixed;imageAspect=0;image=https://www.nginx.com/wp-content/uploads/2018/08/NGINX-logo-rgb-large.png;" vertex="1" parent="1">
          <mxGeometry x="962.1600000000001" y="480" width="118.86" height="40" as="geometry" />
        </mxCell>
        <mxCell id="eB1y9XzGJmH_I-JKS54s-6" value="" style="shape=image;verticalLabelPosition=bottom;labelBackgroundColor=#ffffff;verticalAlign=top;aspect=fixed;imageAspect=0;image=data:image/png,iVBORw0KGgoAAAANSUhEUgAAAXEAAACICAMAAAAmsyvzAAAAkFBMVEX////vOy3uMB/uLBruKBT+7+7vNyfuKhfvOCr3qKP6xMHwPi7719XuJhH95+X2mJL+9vXvQTTwS0D1ioPxXlX6xsL0enH6y8jvMyP0hX/ydG34sazuHwDuIwr97Ov/+fjxWU/yZ171kIr83936z83xU0jyZVzwTUH4t7P3q6f2npn95OL3o570gHj5vbnybWRIX2wNAAAK30lEQVR4nO2d6WKqOBSA4QRJXFCwVuOCUJW61/d/u8kCGhC81uttmfZ8P+4IJRA/8GQlY1kIgiAIgiAIgiAIgiAIgiAIgiAIgiAIgiAIgiAIgiAIgjyReee7c/C7iJp2OFx+dy5+ER9rAhT4wv/ujPwS9u8UZosWo8SefndefgON8QzoaS8+7Tg4weq78/PTibZAaPKqN+ZjwsPh/ntz9MNpJQ5pby/bnXcPoIfh/F+xPHlAXxq5fR99SoLNN2Xoh9N4AQhPV1XC6ECBxjfCefT6L3P1g/HXhPVLxTaO3J1Vat0wL2j9u2z9YBrcZkFpbXB5cm3SLE/VSTwgEA6wtfR5Gi5zwUlGxf3zsSg8K4x3hyGQY2dCIRw3yg5AbtBwyXThgDfJPa7RgREvXgVlxv0egDeQgeg1doA1oy/K6U+h4TqvojYYAhiN+4+1bni2S4xv+oQEH+nGlBGSYDj/FMK4NPYaUNJOw/lSNPdD5f/aeCcmMOtdHmv/RTRV3zCcf4LUuGUdCND1SDb3Q/BOXbWvaHwuArgzmef27U8OzF6wtXQ3Z+OiNihqH5OtAyRr7heM+zvxt5Iq+mtCgGyvdiPlXIyLkPFGOUBwkZc3PvYYK2+GToHNFte7/bniaXl9Nt+TPdO4bNfwo1HfyxufcNt+Kcvg/ujafHy9v+e4rsvZs7L6bLog4V9dv80bjwJz68q4S8DeFWuDfo8DdUuNg23brP3E3D6VrstE9tj3GvcD58P4Y8G409wQo2qombYJ4aOe8z80zmT27Dob9w5WtAAI40ttsNMXTdOdkOuh8Tv5pHERtFXjXofzvWruy89o/G4+bdyyRrFHXNG4V839dz3dAo3fzQPGRey2CU0OfULPMR2N381Dxq3GIuTA6e7c1ETjd/OYcZHdhA+Mujkav5tHjVtD+mJsofG7QeNo/Mv4dcaXrd1isf3M5K+9TNFcPTLotGz1FovDKNcr9MuMb9dAAYCQvjxp3BcEarD11M/zngmeJlyloIEcETnKv7VFik0gP03yZ/fX6oRp2zjarrkje60cdjIGdP8Pxs2tvzL+AUR+XQkjQcfqu4wxT2VkwJkJj7XxUUDdLAWQkTUEmeJVfAGQaWfd/Pk9mXSgNzbu5WLcu9Swam+81XfN2RI546uYfMb4McwUSFxYJnKbqoGQgWubuNr4LpeCzVpHLv7ryBRD+Un27Ri8yZMQPYo4zCW1uZcFspobl1MRCQ8v/eOGcTmbwisZBKoyPiGZOVfJcJPAvm285+VT2HbMMuMrT+03L9AN7XM/7Ino3wX1HMLVRy+NLLU2Ph874A1bsUPahzSuno37Ow7ee1kJWGF8QbU8ypP3PlXH2LeNN8M0BSRva0pYlkQZt9Rnz5xxs5Mn5Uf58aiE06T3sVxtjpyrW6HnDdfZ+MEGJ5FOp5yQtT4iMy5nU7j5LvOMcuMjLVycx48sf75zMsWmcTrL6EfWXj/hEGwakRU1moynKbTxg/Jrlp3qh+DIDG9U0jCbdNZVTzw/6Y3aGm8FhGR59l9CoO/yGdHGOzGFsFdRXys3rpV655g0T/iVcZqbI/amDiCT7DL+O5jG5zMVny/mRirO2Or7SKuh8Q0nMqkuo+tpfGst4xDI4uJUzZY4NpTx+UT4H1ZmudR4S0UI0jN2xW7RuGMa76gfBZgPsb4HqXE1AGsbswlOals+LAf5SIM56K3ugatqMbU0Dr2FcFqY6zxKKPDNBI5NAs7gRhOm1LjS48bmriW/afxFnSYwp8T41DTecnKnbKhfQChNynvJWK7ds5U3IZTfqJbGGQcnvpoFam3bRBRfLvnDpP4y45FyRfKBf8xvGI9U1bEwV0mVjZnxSMUOkr2K2iRZXF/Ki/Fh/gtDdrYaGm9xG1jp1J9GT/42//TiSpnxjnf1wIoKHrlhfKnkevlpG92ZYdxayEMgKxlUkJKNI2uqgkqv0TVQYUXdhdoZX75R7i3K8zM/uiIYdkv/dqHMuJLgDgqZCFi18ZWMGSwulM4BM4yrZzm7jR2iNuTx6k7YgW3Slv+wvlU74/6Yilp2xQtvPQLE5S/lfzQOKzGuf/LHwpH9G8Y3Uqf7VkihD8um672rLZ31sXrgVcl81AVErttAVeRVpuplfCuc9q8DuGIDIoC38v0qpZQZP0CZ8fUN4x+0WN2WnHLG9V1R1ez096IK+yO3KyBWvYyP1g4JKl5IWQ08cHe+9aBxHVVO+QP9W1FF10TeC+dOzKiSavbkT3LjXH4SqpZjc7iC1Ml4y1pOPFEDL8/Ifiia+0cZwB803qJZGDVY3qqr6CDt5svayDNLzvRpVt1ZqhOL6jqUbu0Pm4cralRXIdNF6duG+s89DuFA18IeNK4rGZBfVKR5q67SyBWSKerGGTtXurgUj4QqZwOtUf08Ct2KRlbqYZwxoFWvDW4CQu2sLvOgcR0OINe3G6kwXtkCUk9tIRAlbt64Lnu9kb5mVk50eUnF6ExtjLcrJt+vEgfI5Xl51LhqeNvEfGQXuve2yrgqOm3PbGw1c21OtSdt9rRzjSF1s7x8c2ub5bsWxq0BZf3SjsD9JARidqE8aryh6meMXXoHUn2VxnWT0g4velXpmDfeUNGKqIKZrbO9H7oMMGNkMyTv+mvUw3gkIrV33a73ew7Qt1zwvde43Z5e2Iryb5cOERx0WbifpPoqjaddrrbT03LmL9mIhhncVfeVrYKN0aml2p/MPd/e+VHcA65HVOthXOTj6EA4yTd9piKAFx/9u43b5IIcjoxiXUsm/fHu0DvBuc5cadx60yeCYLhr7iY22CXGX7NhorQTS6M6FWzmHFfzyGp0FkylJbH6pjUxrgfYuFE7fI0JOIdiH/j9xg1C2TuyT0fOmKwou+cn84Zxv88vKbhM7baLxnUEl3CzkN3M9D4SrJOAgDoGBurnVR/jolbFKGFpC0gt5nS8ztbjxq2lk28LhofiyHLBuKgh5k9FhuPzyPLV1XIDcNZ0lt7ftIEvUqV3pE7GRY3CJZS15FogM6ClCx78hXHLH5ynQojH1VncbOUroolzScGciR7BzxlPx+auiupVn5hDp5xms26+z3jpih5y2RXv1BTi1+W18zuML2ZegfO0ko+YqnkmLnfk26PtUP5RXSiRiUpWGZGxjasUtC8qiqfZOUXGm77crNjiibaiXsv11Qi/FFF7z3Mcz/ly48ArXjgWjX0RNtsVKx101lAyQyVPt3PF5WSr3inp9wdj5Vb/UX335eVj8ZK7iUgRH1tR+WHZ5Uq+jkg66IurDbdGlSBaKb56JYdo4EDVSM6ryycV/eNjwmd/vUZf5H/25fLIbzwsyP/01f4R0c4Tkbp88dR2xcvfOwbOGhfoe5iGaE56w7KXkctW+xA1GfkGJy5C+VfIWSezq5eRy413BnItFlzG5m/ZmC+unbk2Pn9xwJlUDMYhn8HfiYZlcfZg0bhczKlkTS3kMdR6Y/lwXjDeSuRiThhQnscq9oCb7Yec8eVbtpgT8jw2NiHtSzg3jPvjUEQdDOBPJ+rBeSTTNL71jMWckKeyn5Dz2hKZ8dfC2s3Ic1mJhj9T/eHaeOfkQNV0OOQ5bFz9KoQ07su1m3FFw39NtFDd4gFpTkUNPMAA/gXMTxQ8ZnMCHAP4FzGKqTAOuPryFzJthyf8f2B9KQ30jSAIgiAIgiAIgiAIgiAIgiAIgiAIgiAIgiAIgiAIgiDIn/gPekLWZ2TJxB0AAAAASUVORK5CYII=;" vertex="1" parent="1">
          <mxGeometry x="-399.99999999999994" y="380" width="189.93" height="70" as="geometry" />
        </mxCell>
        <mxCell id="eB1y9XzGJmH_I-JKS54s-7" value="" style="shape=image;verticalLabelPosition=bottom;labelBackgroundColor=#ffffff;verticalAlign=top;aspect=fixed;imageAspect=0;image=https://res.cloudinary.com/practicaldev/image/fetch/s--zrUJwvgZ--/c_imagga_scale,f_auto,fl_progressive,h_900,q_auto,w_1600/https://dev-to-uploads.s3.amazonaws.com/uploads/articles/bupbqc9fctvw4j7r14it.png;" vertex="1" parent="1">
          <mxGeometry x="-380" y="230" width="195.22" height="110" as="geometry" />
        </mxCell>
        <mxCell id="eB1y9XzGJmH_I-JKS54s-8" value="" style="shape=image;verticalLabelPosition=bottom;labelBackgroundColor=#ffffff;verticalAlign=top;aspect=fixed;imageAspect=0;image=https://www.cleo.com/sites/default/files/2018-10/logo_ibm-mq_module-11.png;" vertex="1" parent="1">
          <mxGeometry x="-320" y="532" width="165.45" height="98" as="geometry" />
        </mxCell>
        <mxCell id="eB1y9XzGJmH_I-JKS54s-9" value="" style="endArrow=classic;startArrow=classic;html=1;rounded=0;exitX=0.5;exitY=0;exitDx=0;exitDy=0;" edge="1" parent="1" source="3Hz_xQ96xvLKW2dNAy2B-5" target="3Hz_xQ96xvLKW2dNAy2B-4">
          <mxGeometry width="50" height="50" relative="1" as="geometry">
            <mxPoint x="390" y="210" as="sourcePoint" />
            <mxPoint x="410" y="100" as="targetPoint" />
          </mxGeometry>
        </mxCell>
        <mxCell id="eB1y9XzGJmH_I-JKS54s-10" value="" style="endArrow=classic;html=1;rounded=0;entryX=0;entryY=0.5;entryDx=0;entryDy=0;" edge="1" parent="1" source="3Hz_xQ96xvLKW2dNAy2B-4" target="3Hz_xQ96xvLKW2dNAy2B-9">
          <mxGeometry width="50" height="50" relative="1" as="geometry">
            <mxPoint x="560" y="160" as="sourcePoint" />
            <mxPoint x="610" y="110" as="targetPoint" />
          </mxGeometry>
        </mxCell>
        <mxCell id="eB1y9XzGJmH_I-JKS54s-11" value="" style="endArrow=classic;html=1;rounded=0;entryX=0;entryY=0.5;entryDx=0;entryDy=0;exitX=1;exitY=0.5;exitDx=0;exitDy=0;" edge="1" parent="1" source="3Hz_xQ96xvLKW2dNAy2B-9" target="3Hz_xQ96xvLKW2dNAy2B-6">
          <mxGeometry width="50" height="50" relative="1" as="geometry">
            <mxPoint x="620" y="200" as="sourcePoint" />
            <mxPoint x="670" y="150" as="targetPoint" />
          </mxGeometry>
        </mxCell>
        <mxCell id="eB1y9XzGJmH_I-JKS54s-13" value="" style="endArrow=classic;html=1;rounded=0;exitX=0.5;exitY=1;exitDx=0;exitDy=0;entryX=0.5;entryY=0;entryDx=0;entryDy=0;" edge="1" parent="1" source="3Hz_xQ96xvLKW2dNAy2B-6" target="3Hz_xQ96xvLKW2dNAy2B-7">
          <mxGeometry width="50" height="50" relative="1" as="geometry">
            <mxPoint x="1110" y="150" as="sourcePoint" />
            <mxPoint x="1160" y="100" as="targetPoint" />
          </mxGeometry>
        </mxCell>
        <mxCell id="eB1y9XzGJmH_I-JKS54s-16" value="" style="endArrow=classic;html=1;rounded=0;entryX=0.5;entryY=0;entryDx=0;entryDy=0;exitX=0.5;exitY=1;exitDx=0;exitDy=0;" edge="1" parent="1" source="3Hz_xQ96xvLKW2dNAy2B-7" target="eB1y9XzGJmH_I-JKS54s-4">
          <mxGeometry width="50" height="50" relative="1" as="geometry">
            <mxPoint x="850" y="440" as="sourcePoint" />
            <mxPoint x="900" y="390" as="targetPoint" />
          </mxGeometry>
        </mxCell>
        <mxCell id="eB1y9XzGJmH_I-JKS54s-17" value="" style="endArrow=classic;html=1;rounded=0;entryX=1;entryY=0.5;entryDx=0;entryDy=0;" edge="1" parent="1" source="3Hz_xQ96xvLKW2dNAy2B-4" target="3Hz_xQ96xvLKW2dNAy2B-13">
          <mxGeometry width="50" height="50" relative="1" as="geometry">
            <mxPoint x="320" y="180" as="sourcePoint" />
            <mxPoint x="370" y="130" as="targetPoint" />
          </mxGeometry>
        </mxCell>
        <mxCell id="eB1y9XzGJmH_I-JKS54s-18" value="" style="endArrow=classic;html=1;rounded=0;exitX=1;exitY=1;exitDx=0;exitDy=0;entryX=0.25;entryY=0;entryDx=0;entryDy=0;" edge="1" parent="1" source="3Hz_xQ96xvLKW2dNAy2B-13" target="3Hz_xQ96xvLKW2dNAy2B-5">
          <mxGeometry width="50" height="50" relative="1" as="geometry">
            <mxPoint x="320" y="180" as="sourcePoint" />
            <mxPoint x="370" y="130" as="targetPoint" />
            <Array as="points">
              <mxPoint x="360" y="80" />
            </Array>
          </mxGeometry>
        </mxCell>
      </root>
    </mxGraphModel>
  </diagram>
</mxfile>
